<?xml version="1.0" encoding="UTF-8" standalone="no"?>
<!-- Created with Inkscape (http://www.inkscape.org/) -->

<svg
   width="1787.7877mm"
   height="217.07899mm"
   viewBox="0 0 1787.7877 217.07899"
   version="1.1"
   id="svg1"
   xml:space="preserve"
   sodipodi:docname="fullLogo.svg"
   inkscape:version="1.3.2 (091e20e, 2023-11-25, custom)"
   xmlns:inkscape="http://www.inkscape.org/namespaces/inkscape"
   xmlns:sodipodi="http://sodipodi.sourceforge.net/DTD/sodipodi-0.dtd"
   xmlns="http://www.w3.org/2000/svg"
   xmlns:svg="http://www.w3.org/2000/svg"><sodipodi:namedview
     id="namedview1"
     pagecolor="#ffffff"
     bordercolor="#000000"
     borderopacity="0.25"
     inkscape:showpageshadow="2"
     inkscape:pageopacity="0.0"
     inkscape:pagecheckerboard="0"
     inkscape:deskcolor="#d1d1d1"
     inkscape:document-units="mm"
     inkscape:zoom="0.09763672"
     inkscape:cx="2842.1684"
     inkscape:cy="-51.210242"
     inkscape:window-width="1920"
     inkscape:window-height="995"
     inkscape:window-x="-9"
     inkscape:window-y="-9"
     inkscape:window-maximized="1"
     inkscape:current-layer="svg1" /><defs
     id="defs1" /><g
     id="layer1"
     transform="translate(-232.39439,-612.7465)"><path
       id="rect1-4-7-2-7-6"
       style="fill:#ffffff;fill-opacity:1;stroke-width:0.944835"
       d="M 2018.3054,752.028 H 1871.942 c -1.0398,0 -1.8764,0.60303 -1.8764,1.34647 v 12.79017 c 0,0.74609 0.8366,1.34649 1.8764,1.34649 h 146.3634 c 1.0395,0 1.8767,-0.6033 1.8767,-1.34649 v -12.79017 c 0,-0.74582 -0.8372,-1.34647 -1.8767,-1.34647 z m -57.9146,-47.68946 h -88.1596 c -1.2995,0 -2.3457,0.75082 -2.3457,1.68291 v 12.11705 c 0,0.93208 1.0462,1.68265 2.3457,1.68265 h 88.1596 c 1.2993,0 2.3458,-0.75057 2.3458,-1.68265 v -12.11705 c 0,-0.93209 -1.0465,-1.68291 -2.3458,-1.68291 z m 57.2594,-37.45974 H 1872.225 c -1.2994,0 -2.3457,0.75056 -2.3457,1.68264 v 12.11705 c 0,0.93287 1.0463,1.68317 2.3457,1.68317 h 145.4252 c 1.2997,0 2.346,-0.7503 2.346,-1.68317 v -12.11705 c 0,-0.93208 -1.0463,-1.68264 -2.346,-1.68264 z m -147.7636,38.80306 v 60.37054 c 0,0.79537 0.892,1.43554 2.0001,1.43554 h 17.5795 c 1.1079,0 2.0001,-0.64202 2.0001,-1.43554 v -60.37054 c 0,-0.79535 -0.8922,-1.43552 -2.0001,-1.43552 h -17.5795 c -1.1081,0 -2.0001,0.64228 -2.0001,1.43552 z m -589.1914,47.66706 h -146.3637 c -1.0396,0 -1.8766,0.60277 -1.8766,1.34595 v 12.7907 c 0,0.74583 0.837,1.34648 1.8766,1.34648 h 146.3637 c 1.0395,0 1.8764,-0.60329 1.8764,-1.34648 v -12.7907 c 0,-0.74555 -0.8369,-1.34595 -1.8764,-1.34595 z m -57.9149,-47.68944 h -88.1596 c -1.2995,0 -2.3457,0.75056 -2.3457,1.68343 v 12.11652 c 0,0.93261 1.0462,1.68318 2.3457,1.68318 h 88.1596 c 1.2995,0 2.3458,-0.75057 2.3458,-1.68318 v -12.11652 c 0,-0.93287 -1.0463,-1.68343 -2.3458,-1.68343 z m 57.2597,-37.46002 h -145.4256 c -1.2993,0 -2.3454,0.75082 -2.3454,1.68343 v 12.11706 c 0,0.93208 1.0461,1.68238 2.3454,1.68238 H 1280.04 c 1.2994,0 2.3456,-0.7503 2.3456,-1.68238 v -12.11706 c 0,-0.93261 -1.0462,-1.68343 -2.3456,-1.68343 z m -147.7639,38.80307 v 60.37134 c 0,0.79535 0.8919,1.435 1.9999,1.435 h 17.5796 c 1.108,0 2,-0.64228 2,-1.435 v -60.37134 c 0,-0.79509 -0.892,-1.43474 -2,-1.43474 h -17.5796 c -1.108,0 -1.9999,0.64202 -1.9999,1.43474 z m -182.32495,46.62011 h 146.36365 c 1.0397,0 1.8765,0.60303 1.8765,1.3465 v 12.79016 c 0,0.74608 -0.8368,1.34674 -1.8765,1.34674 H 949.95115 c -1.03963,0 -1.87642,-0.60356 -1.87642,-1.34674 v -12.79016 c 0,-0.74583 0.83679,-1.3465 1.87642,-1.3465 z m 0.64908,-47.68918 h 145.42547 c 1.2995,0 2.3456,0.75057 2.3456,1.68317 v 12.11732 c 0,0.93208 -1.0461,1.68265 -2.3456,1.68265 H 950.60023 c -1.2995,0 -2.34556,-0.75057 -2.34556,-1.68265 v -12.11732 c 0,-0.9326 1.04606,-1.68317 2.34556,-1.68317 z m 0.0104,-37.46002 h 145.42547 c 1.2995,0 2.3457,0.75057 2.3457,1.68318 v 12.11731 c 0,0.93208 -1.0462,1.68291 -2.3457,1.68291 H 950.61153 c -1.2995,0 -2.34566,-0.75083 -2.34566,-1.68291 v -12.11731 c 0,-0.93261 1.04616,-1.68318 2.34566,-1.68318 z m 147.76387,38.80308 v 60.3716 c 0,0.79508 -0.892,1.43474 -1.9999,1.43474 h -17.5797 c -1.1079,0 -1.9999,-0.64228 -1.9999,-1.43474 v -60.3716 c 0,-0.79535 0.892,-1.43474 1.9999,-1.43474 h 17.5797 c 1.1079,0 1.9999,0.64228 1.9999,1.43474 z m 593.6808,2.8297 h 145.4257 c 1.2993,0 2.3455,0.75083 2.3455,1.68343 v 12.11653 c 0,0.93261 -1.0462,1.68318 -2.3455,1.68318 h -145.4257 c -1.2994,0 -2.3455,-0.75057 -2.3455,-1.68318 v -12.11653 c 0,-0.9326 1.0461,-1.68343 2.3455,-1.68343 z m 148.3856,20.1496 v 34.46881 c 0,0.79509 -0.8923,1.435 -2.0001,1.435 h -17.5797 c -1.108,0 -2.0001,-0.64255 -2.0001,-1.435 v -34.46881 c 0,-0.79483 0.8921,-1.435 2.0001,-1.435 h 17.5797 c 1.1078,0 2.0001,0.64228 2.0001,1.435 z m -0.8568,-63.55539 v 58.77537 h -21.5799 v -58.77537 z m -149.9555,0.0764 h 150.1168 v 15.48262 h -150.1168 z m 21.4738,0.14491 v 101.81021 h -21.5795 V 666.92174 Z m -56.7326,0.85409 v 99.65889 c 0,0.59671 -0.6689,1.07566 -1.4996,1.07566 h -18.5806 c -0.8307,0 -1.4995,-0.47841 -1.4995,-1.07566 v -99.6589 c 0,-0.59671 0.6688,-1.07592 1.4995,-1.07592 h 18.5806 c 0.8307,0 1.4996,0.47869 1.4996,1.07592 z m -146.8799,85.45005 h 144.4871 c 1.5594,0 2.8146,0.90048 2.8146,2.01934 v 11.44421 c 0,1.11886 -1.2552,2.01959 -2.8146,2.01959 h -144.4871 c -1.5595,0 -2.8148,-0.90073 -2.8148,-2.01959 v -11.44421 c 0,-1.11887 1.2553,-2.01934 2.8148,-2.01934 z m 17.9425,-84.82015 v 99.6589 c 0,0.59645 -0.6687,1.07539 -1.4995,1.07539 h -18.5806 c -0.8306,0 -1.4995,-0.47842 -1.4995,-1.07539 v -99.65891 c 0,-0.59671 0.6689,-1.07565 1.4995,-1.07565 h 18.5806 c 0.8308,0 1.4995,0.47843 1.4995,1.07565 z m -201.6991,86.01964 h 147.3028 c 0.7796,0 1.4074,0.45234 1.4074,1.01007 v 13.46353 c 0,0.55719 -0.6279,1.00927 -1.4074,1.00927 h -147.3018 c -0.7798,0 -1.4075,-0.45208 -1.4075,-1.00927 v -13.46353 c 0,-0.5572 0.628,-1.01007 1.4075,-1.01007 z m 19.674,-84.93028 v 98.94232 c 0,0.79509 -0.8916,1.435 -1.9993,1.435 h -17.5807 c -1.1077,0 -1.9996,-0.64228 -1.9996,-1.435 v -98.94233 c 0,-0.79455 0.8919,-1.43447 1.9996,-1.43447 h 17.5807 c 1.1077,0 1.9993,0.64255 1.9993,1.43447 z m -19.2248,-2.14473 h 146.3636 c 1.0396,0 1.8765,0.60303 1.8765,1.34622 v 12.79044 c 0,0.74607 -0.8369,1.34622 -1.8765,1.34622 h -146.3639 c -1.0396,0 -1.8765,-0.60278 -1.8765,-1.34622 v -12.79044 c 0,-0.74609 0.8369,-1.34622 1.8765,-1.34622 z m -551.51091,85.90635 h 146.36366 c 1.03964,0 1.87664,0.60303 1.87664,1.34622 v 12.79044 c 0,0.74607 -0.837,1.34647 -1.87664,1.34647 H 772.66688 c -1.03958,0 -1.87651,-0.60303 -1.87651,-1.34647 v -12.79044 c 0,-0.74581 0.83693,-1.34622 1.87651,-1.34622 z m 0.64902,-47.68945 h 145.42546 c 1.29938,0 2.34555,0.75057 2.34555,1.68264 v 12.11706 c 0,0.93234 -1.04617,1.68291 -2.34555,1.68291 H 773.31581 c -1.29946,0 -2.34559,-0.75057 -2.34559,-1.68291 V 707.2499 c 0,-0.93207 1.04613,-1.68264 2.34559,-1.68264 z m 0.005,-37.45975 h 145.4212 c 1.29949,0 2.34565,0.75031 2.34565,1.68265 v 12.11705 c 0,0.93287 -1.04616,1.68318 -2.34565,1.68318 H 773.32128 c -1.29941,0 -2.34562,-0.75031 -2.34562,-1.68318 v -12.11705 c 0,-0.93234 1.04621,-1.68265 2.34562,-1.68265 z m 147.76384,38.80281 v 60.37108 c 0,0.79482 -0.89192,1.43526 -1.99997,1.43526 H 901.51 c -1.10805,0 -2.00008,-0.64229 -2.00008,-1.43526 v -60.37108 c 0,-0.79509 0.89203,-1.43553 2.00008,-1.43553 h 17.57948 c 1.10805,0 1.99997,0.64255 1.99997,1.43553 z m -175.77929,2.25486 v 58.93607 c 0,1.19315 -1.33805,2.15264 -3.00013,2.15264 H 726.7304 c -1.66208,0 -3.0001,-0.95949 -3.0001,-2.15264 v -58.93607 c 0,-1.19211 1.33802,-2.15238 3.0001,-2.15238 h 15.57944 c 1.66208,0 3.00013,0.96027 3.00013,2.15238 z m -128.29939,-0.2292 v 60.37187 c 0,0.79481 -0.8921,1.43474 -2.0001,1.43474 h -17.57954 c -1.10802,0 -2.00001,-0.64256 -2.00001,-1.43474 v -60.37187 c 0,-0.7951 0.89199,-1.43502 2.00001,-1.43502 h 17.57954 c 1.108,0 2.0001,0.64282 2.0001,1.43502 z m -20.3325,-2.11787 H 743.98 c 0.7797,0 1.40736,0.45234 1.40736,1.00954 v 13.46354 c 0,0.55719 -0.62739,1.01006 -1.40736,1.01006 H 596.67974 c -0.77972,0 -1.40736,-0.45234 -1.40736,-1.01006 v -13.46354 c 0,-0.5572 0.62794,-1.00954 1.40736,-1.00954 z m 0.93818,-38.70717 h 145.42546 c 1.29944,0 2.34564,0.75057 2.34564,1.68264 v 12.11705 c 0,0.93288 -1.0462,1.68344 -2.34564,1.68344 H 597.61188 c -1.29944,0 -2.34555,-0.75056 -2.34555,-1.68344 v -12.11705 c 0,-0.93207 1.04611,-1.68264 2.34555,-1.68264 z m -165.59471,-54.70614 -1.26125,1.99404 -1.23384,-1.91369 -130.97268,0.45867 0.3334,-0.52742 z m -133.55719,0.68049 89.22783,69.40499 -22.16348,35.0405 -133.13451,0.0263 z m 173.57553,132.72127 16.50083,12.8352 -44.72652,70.18374 -131.46254,-0.0607 z m 103.28971,71.64991 -132.62817,-205.70993 -131.24243,0.45987 z m -208.52342,-93.42383 32.78783,51.15065 -98.71645,51.28394 H 299.6282 L 233.97396,725.04371 Z m 65.40651,102.03731 0.24793,0.38622 h -0.49403 z" /></g></svg>
